<svg width="28" height="28" viewBox="0 0 28 28" fill="none" xmlns="http://www.w3.org/2000/svg">
<path d="M22.575 23.8293L15.5458 16.8001C14.9625 17.3057 14.2823 17.6994 13.5054 17.9814C12.7284 18.2633 11.9016 18.4043 11.025 18.4043C8.92185 18.4043 7.1419 17.6751 5.68514 16.2168C4.22838 14.7584 3.5 12.9987 3.5 10.9376C3.5 8.8765 4.22917 7.11678 5.6875 5.65845C7.14583 4.20011 8.91042 3.47095 10.9813 3.47095C13.0521 3.47095 14.8118 4.20011 16.2604 5.65845C17.709 7.11678 18.4333 8.87796 18.4333 10.942C18.4333 11.7752 18.2972 12.5807 18.025 13.3584C17.7528 14.1362 17.3444 14.8654 16.8 15.5459L23.8875 22.5751C24.0625 22.7393 24.15 22.9407 24.15 23.1795C24.15 23.4182 24.0536 23.634 23.8609 23.8267C23.6842 24.0034 23.4673 24.0918 23.2102 24.0918C22.9531 24.0918 22.7414 24.0043 22.575 23.8293ZM10.9958 16.6543C12.5757 16.6543 13.9186 16.0953 15.0245 14.9772C16.1304 13.8591 16.6833 12.5126 16.6833 10.9376C16.6833 9.36261 16.1304 8.01609 15.0245 6.89803C13.9186 5.77998 12.5757 5.22095 10.9958 5.22095C9.39978 5.22095 8.04312 5.77998 6.92586 6.89803C5.80862 8.01609 5.25 9.36261 5.25 10.9376C5.25 12.5126 5.80862 13.8591 6.92586 14.9772C8.04312 16.0953 9.39978 16.6543 10.9958 16.6543Z" fill="#5E5E5E"/>
</svg>
